<svg width="32" height="32" viewBox="0 0 32 32" fill="none" xmlns="http://www.w3.org/2000/svg">
<rect width="32" height="32" rx="6" fill="#CAB8FF"/>
<g clip-path="url(#clip0_19320_6156)">
<path d="M13.75 13C13.75 16.7803 16.2934 19.9636 19.7617 20.9395V26.0605H19.8423C19.14 26.2574 18.3488 26.3982 17.4971 26.459C17.4913 26.4594 17.4853 26.46 17.4795 26.4604C17.1545 26.4832 16.8209 26.5 16.4805 26.5L16.4775 26.4985L16.4746 26.5C16.1337 26.5 15.7995 26.4833 15.4741 26.4604C15.4684 26.46 15.4623 26.4594 15.4565 26.459C12.33 26.2355 10.0004 25.0003 10 23.4619V9.68652C10.0003 8.44442 11.5193 7.39954 13.75 6.92529V13Z" fill="black"/>
<path d="M7.75 25.8672C5.67893 25.8672 4 24.1883 4 22.1172V11.6172C4 9.54612 5.67893 7.86719 7.75 7.86719V25.8672Z" fill="black"/>
<path fill-rule="evenodd" clip-rule="evenodd" d="M21.4404 5.5C25.0644 5.5 28.0029 8.43853 28.0029 12.0625V19H28V25.0029H22.0806C22.0566 25.0223 22.0307 25.0395 22.0059 25.0586V21.25H25.0029V19H22L21.6909 18.9927C18.5208 18.8318 16 16.2101 16 13V5.5H21.4404ZM23.2803 13.2988C22.3276 13.2988 21.5547 14.0717 21.5547 15.0244C21.555 15.9768 22.3278 16.7485 23.2803 16.7485C24.2325 16.7482 25.0041 15.9766 25.0044 15.0244C25.0044 14.0719 24.2327 13.2991 23.2803 13.2988Z" fill="black"/>
</g>
<defs>
<clipPath id="clip0_19320_6156">
<rect width="24" height="24" fill="white" transform="translate(4 4)"/>
</clipPath>
</defs>
</svg>
