<svg width="261" height="220" viewBox="0 0 261 220" fill="none" xmlns="http://www.w3.org/2000/svg">
<path d="M112.618 167.104H121.382V219.887H20.9268C9.36948 219.887 0.000129364 210.518 0 198.961L0 137.851C0.000107667 131.107 3.57018 124.867 9.38379 121.449L112.618 60.7656L112.618 167.104ZM107.917 203.066C106.092 203.066 104.612 204.546 104.612 206.371C104.613 208.196 106.092 209.675 107.917 209.675C109.742 209.675 111.221 208.196 111.221 206.371C111.221 204.546 109.742 203.067 107.917 203.066Z" fill="#9572FF"/>
<path fill-rule="evenodd" clip-rule="evenodd" d="M126.515 0C130.053 3.17093e-07 133.517 0.169081 136.894 0.422427C136.955 0.42748 137.017 0.430483 137.078 0.435628C165.664 2.61945 187.839 13.5328 192.759 27.7792C180.289 28.6394 170.439 39.0757 170.439 51.8236C170.439 64.9183 180.833 75.5734 193.783 75.9161V112.505C180.833 112.848 170.439 123.503 170.439 136.598C170.439 149.434 180.426 159.926 193.019 160.658C188.673 175.297 166.203 186.573 137.078 188.798C137.017 188.804 136.955 188.807 136.894 188.812C133.516 189.065 130.053 189.247 126.515 189.247L126.489 189.234L126.462 189.247C122.92 189.247 119.452 189.066 116.07 188.812C116.009 188.807 115.947 188.804 115.886 188.798C83.3992 186.313 59.1943 172.566 59.1943 155.453L59.1943 33.7942C59.1943 16.6813 83.3987 2.92067 115.886 0.435628C115.947 0.430477 116.009 0.427486 116.07 0.422427C119.452 0.168438 122.92 3.17502e-07 126.462 0L126.515 0ZM72.6479 158.833C70.7904 158.833 69.2845 160.346 69.2845 162.212C69.2845 164.078 70.7904 165.591 72.6479 165.591C74.5055 165.591 76.0113 164.078 76.0113 162.212C76.0113 160.346 74.5055 158.833 72.6479 158.833ZM150.45 70.1678C137.202 70.1678 126.462 80.9586 126.462 94.2695C126.462 107.58 137.202 118.371 150.45 118.371C163.698 118.371 174.437 107.58 174.437 94.2695C174.437 80.9586 163.698 70.1678 150.45 70.1678Z" fill="black"/>
<path d="M194.426 112.496C207.674 112.496 218.414 123.287 218.414 136.598C218.414 149.909 207.674 160.7 194.426 160.7C193.954 160.7 193.485 160.685 193.019 160.658C193.522 158.965 193.783 157.227 193.783 155.453L193.783 112.505C193.997 112.499 194.211 112.496 194.426 112.496Z" fill="black"/>
<path d="M237.011 70.1678C250.259 70.1678 260.998 80.9586 260.998 94.2695C260.998 107.58 250.259 118.371 237.011 118.371C223.763 118.371 213.024 107.58 213.024 94.2695C213.024 80.9586 223.763 70.1678 237.011 70.1678Z" fill="black"/>
<path d="M194.426 27.7218C207.674 27.7218 218.414 38.5126 218.414 51.8236C218.414 65.1345 207.674 75.925 194.426 75.925C194.211 75.925 193.997 75.9217 193.783 75.9161V33.7942C193.783 31.7359 193.432 29.7266 192.759 27.7792C193.31 27.7412 193.866 27.7218 194.426 27.7218Z" fill="black"/>
<path d="M69.2881 27.0357C69.2881 25.1693 70.7939 23.6562 72.6515 23.6562C74.509 23.6562 76.0149 25.1693 76.0149 27.0357C76.0149 28.9021 74.509 30.4151 72.6515 30.4151C70.7939 30.4151 69.2881 28.9021 69.2881 27.0357Z" fill="#BFFF00"/>
<rect x="87.2959" y="174.828" width="71.7526" height="27.0353" rx="13.5177" transform="rotate(180 87.2959 174.828)" fill="#2A9FFF"/>
<circle cx="72.3995" cy="161.31" r="7.47374" transform="rotate(-90 72.3995 161.31)" fill="#9572FF"/>
<circle cx="30.4401" cy="161.31" r="7.47374" transform="rotate(-90 30.4401 161.31)" fill="black"/>
</svg>
