<svg width="628" height="523" viewBox="0 0 628 523" fill="none" xmlns="http://www.w3.org/2000/svg">
<path d="M231.548 40.2705C247.434 40.2705 260.312 53.1489 260.312 69.0352V235.049H30.1963C14.3101 235.049 1.43164 222.17 1.43164 206.284V69.0352C1.43164 53.1489 14.3101 40.2705 30.1963 40.2705H231.548ZM34.5127 63.2822C28.9527 63.2823 24.4454 67.7896 24.4453 73.3496C24.4453 78.9097 28.9526 83.4169 34.5127 83.417C40.0729 83.417 44.5801 78.9098 44.5801 73.3496C44.58 67.7895 40.0728 63.2822 34.5127 63.2822Z" fill="#9572FF"/>
<path d="M215.087 121.223C272.847 40.004 367.97 -7.68858 411.611 1.01906C439.593 6.61293 426.904 37.4902 406.688 71.7896C386.48 106.072 365.123 140.392 371.282 146.703C443.795 76.9347 491.63 62.2215 530.485 62.2153C569.345 62.2153 550.501 90.5317 530.485 121.223C516.452 142.744 498.961 170.124 504.263 175.972C546.075 146.197 589.386 138.983 609.738 143.185C630.066 147.395 636.031 156.239 607.976 199.653L581.13 239.943C590.574 255.204 606.408 278.979 606.416 317.826C606.412 396.026 543.879 491.675 513.135 522.284H439.277C448.221 433.096 357.509 434.949 299.379 522.284H227.396C199.799 494.673 186.317 442.136 182.613 416.578C158.781 453.384 93.4781 473.624 46.8163 442.131C-8.57847 404.724 -8.24001 341.085 15.7108 302.233L68.622 315.715C61.4621 343.939 72.0903 363.38 92.4599 363.392C148.484 363.372 130.926 239.586 215.087 121.223ZM269.926 238.345C266.384 236.781 261.947 236.74 256.571 238.682C251.162 240.636 245.108 244.507 238.81 250.231C226.619 261.311 214.186 278.728 204.455 300.07L203.521 302.147C199.58 311.056 196.45 319.909 194.101 328.417H268.225C277.509 306.814 282.055 285.85 282.056 269.346C282.056 260.837 280.847 253.756 278.655 248.442C276.477 243.163 273.465 239.912 269.926 238.345ZM406.037 238.347C402.495 236.788 398.061 236.75 392.687 238.695C387.282 240.652 381.232 244.523 374.938 250.247C362.362 261.684 349.529 279.868 339.67 302.148C335.725 311.064 332.569 319.916 330.213 328.417H404.334C413.619 306.813 418.164 285.849 418.164 269.345C418.164 260.837 416.957 253.756 414.765 248.443C412.587 243.166 409.575 239.915 406.037 238.347ZM589.595 161.101C584.07 161.101 579.591 165.581 579.591 171.106C579.591 176.631 584.07 181.11 589.595 181.11C595.119 181.11 599.599 176.631 599.599 171.106C599.599 165.581 595.119 161.101 589.595 161.101ZM511.563 82.0698C506.039 82.0701 501.56 86.549 501.559 92.0737C501.559 97.5987 506.039 102.077 511.563 102.078C517.088 102.077 521.568 97.5987 521.568 92.0737C521.568 86.5489 517.088 82.07 511.563 82.0698Z" fill="black"/>
<path d="M380.516 30.0489C380.516 24.5239 384.995 20.0449 390.52 20.0449C396.044 20.0451 400.524 24.524 400.524 30.0489C400.524 35.5738 396.045 40.0527 390.52 40.0529C384.995 40.0529 380.516 35.574 380.516 30.0489Z" fill="#BFFF00"/>
<rect x="303.461" y="169.711" width="172.587" height="64.7202" rx="32.3601" transform="rotate(180 303.461 169.711)" fill="#2A9FFF"/>
<rect x="286.202" y="155.329" width="35.9557" height="35.9557" rx="17.9778" transform="rotate(180 286.202 155.329)" fill="#9572FF"/>
<rect x="184.088" y="155.329" width="35.9557" height="35.9557" rx="17.9778" transform="rotate(180 184.088 155.329)" fill="black"/>
</svg>
