<svg width="64" height="64" viewBox="0 0 64 64" fill="none" xmlns="http://www.w3.org/2000/svg">
<path fill-rule="evenodd" clip-rule="evenodd" d="M40 4C28.9543 4 20 7.58172 20 12V52C20 56.4183 28.9543 60 40 60C51.0457 60 60 56.4183 60 52V12C60 7.58172 51.0457 4 40 4ZM26 39.7031C29.6069 41.1199 34.5467 42 40 42C45.4529 42 50.3926 41.1191 54 39.7031V45.707C50.3923 47.1221 45.452 48 40 48C34.548 48 29.6077 47.1221 26 45.707V39.7031ZM26 21.7031C29.6069 23.1199 34.5467 24 40 24C45.4529 24 50.3926 23.1191 54 21.7031V27.707C50.3923 29.1221 45.452 30 40 30C34.548 30 29.6077 29.1221 26 27.707V21.7031Z" fill="black"/>
<path d="M4 42.0469H16V36.0391H4V42.0469Z" fill="black"/>
<path d="M0 30.0625H16V24.0547H0V30.0625Z" fill="black"/>
</svg>
